<svg width="50" height="50" viewBox="0 0 50 50" fill="none" xmlns="http://www.w3.org/2000/svg">
<rect width="50" height="50" rx="25" fill="#FFE1A0"/>
<path fill-rule="evenodd" clip-rule="evenodd" d="M23.268 12.01C24.0378 10.6767 25.9623 10.6767 26.7321 12.01L38.2676 31.99C39.0374 33.3234 38.0751 34.99 36.5355 34.99H13.4646C11.925 34.99 10.9627 33.3234 11.7325 31.99L23.268 12.01ZM26.4438 18.9329C26.4438 18.2354 25.8784 17.67 25.1809 17.67C24.4834 17.67 23.918 18.2354 23.918 18.9329V25.0671C23.918 25.7646 24.4834 26.33 25.1809 26.33C25.8784 26.33 26.4438 25.7646 26.4438 25.0671V18.9329ZM26.4438 29.9384C26.4438 29.3405 25.9591 28.8559 25.3613 28.8559H25.0005C24.4026 28.8559 23.918 29.3405 23.918 29.9384C23.918 30.5362 24.4026 31.0209 25.0005 31.0209H25.3613C25.9591 31.0209 26.4438 30.5362 26.4438 29.9384Z" fill="#FFB619"/>
<path d="M23.918 18.9329C23.918 18.2354 24.4834 17.67 25.1809 17.67C25.8784 17.67 26.4438 18.2354 26.4438 18.9329V25.0671C26.4438 25.7646 25.8784 26.33 25.1809 26.33C24.4834 26.33 23.918 25.7646 23.918 25.0671V18.9329Z" fill="white"/>
<path d="M23.918 29.9384C23.918 29.3405 24.4026 28.8559 25.0005 28.8559H25.3613C25.9591 28.8559 26.4438 29.3405 26.4438 29.9384C26.4438 30.5362 25.9591 31.0209 25.3613 31.0209H25.0005C24.4026 31.0209 23.918 30.5362 23.918 29.9384Z" fill="white"/>
</svg>
